<?xml version="1.0" encoding="UTF-8"?>
<!DOCTYPE svg PUBLIC "-//W3C//DTD SVG 1.1//EN" "http://www.w3.org/Graphics/SVG/1.1/DTD/svg11.dtd">
<!-- Creator: CorelDRAW 2020 (64 Bit) -->
<svg xmlns="http://www.w3.org/2000/svg" xml:space="preserve" width="4500px" height="4500px" version="1.1" style="shape-rendering:geometricPrecision; text-rendering:geometricPrecision; image-rendering:optimizeQuality; fill-rule:evenodd; clip-rule:evenodd"
viewBox="0 0 4500 4500"
 xmlns:xlink="http://www.w3.org/1999/xlink"
 xmlns:xodm="http://www.corel.com/coreldraw/odm/2003">
 <defs>
  <style type="text/css">
   <![CDATA[
    .fil0 {fill:#F0EDE4}
    .fil1 {fill:#627060;fill-rule:nonzero}
   ]]>
  </style>
 </defs>
 <g id="Camada_x0020_1">
  <metadata id="CorelCorpID_0Corel-Layer"/>
  <rect class="fil0" width="4500" height="4500"/>
  <g id="_2251525765232">
   <path class="fil1" d="M450.53 2798.26l0 -150.09c0,-60.55 -1.02,-95.66 -1.53,-99.73l32.06 0c-0.51,4.07 -1.02,39.18 -1.02,99.73l0 235.07c50.89,-0.51 104.31,-2.03 157.23,-4.07 0.51,1.52 1.02,3.05 1.02,5.08 0,4.59 -2.55,9.67 -6.63,13.75l-182.66 0c0.51,-4.08 1.53,-39.19 1.53,-99.74z"/>
   <path class="fil1" d="M868.26 2777.4l-68.17 -202 -65.64 177.58 -8.65 24.42 142.46 0zm-183.17 93.62c0,-35.61 12.72,-69.7 33.58,-124.14l75.82 -200.47 26.46 0 119.56 351.59 -35.11 0c0,-7.64 -10.68,-42.24 -32.04,-105.33l-152.14 0c-5.59,20.86 -8.65,38.16 -8.65,55.46 0,15.78 2.54,32.56 9.16,49.87l-34.09 0c-1.53,-7.64 -2.55,-16.29 -2.55,-26.98z"/>
   <path class="fil1" d="M1008.21 2810.99l0 -222.87 -25.45 -39.68 35.11 0 194.88 308.85 -1.53 -200.98c-0.51,-43.25 -10.68,-74.29 -35.61,-107.87l39.18 0c9.66,23.4 13.22,50.37 13.22,87l0 262.55 -23.91 0 -180.63 -285.95 1.52 178.09c0.51,43.24 10.69,74.28 35.62,107.86l-39.69 0c-9.16,-23.4 -12.71,-50.37 -12.71,-87z"/>
   <path class="fil1" d="M1336.91 2810.99l0 -222.87 -25.45 -39.68 35.11 0 194.88 308.85 -1.52 -200.98c-0.52,-43.25 -10.69,-74.29 -35.63,-107.87l39.18 0c9.67,23.4 13.23,50.37 13.23,87l0 262.55 -23.91 0 -180.63 -285.95 1.53 178.09c0.51,43.24 10.68,74.28 35.62,107.86l-39.69 0c-9.16,-23.4 -12.72,-50.37 -12.72,-87z"/>
   <path class="fil1" d="M1736.34 2798.26l0 -39.69 -113.47 -210.13 35.62 0c0,5.08 14.76,34.09 42.74,85.48l57.49 105.83c58.01,-74.79 83.95,-109.9 83.95,-148.57 0,-15.78 -4.57,-30.02 -10.67,-42.74l34.6 0c2.03,10.68 3.04,19.33 3.04,27.98 0,50.89 -37.14,92.1 -103.79,179.62l0 42.22c0,60.05 0.51,95.66 1.53,99.74l-32.57 0c1.02,-4.08 1.53,-39.69 1.53,-99.74z"/>
   <path class="fil1" d="M2042.14 2815.56l28.49 -12.71c11.71,52.91 44.78,84.97 88.53,84.97 40.72,0 72.77,-27.48 72.77,-68.18 0,-27.99 -15.26,-54.45 -55.97,-74.29l-55.97 -27.48c-45.28,-22.39 -67.67,-53.42 -67.67,-90.57 0,-51.89 43.76,-86.5 98.2,-86.5 55.97,0 97.18,37.14 118.55,93.63l-29.5 8.65c-15.78,-50.89 -45.8,-86.5 -93.12,-86.5 -39.18,0 -67.67,24.42 -67.67,62.58 0,29.51 17.3,54.44 58.01,74.8l56.47 27.48c44.27,21.87 66.15,51.39 66.15,89.54 0,54.96 -46.31,93.12 -105.33,93.12 -55.96,0 -96.67,-34.6 -111.94,-88.54z"/>
   <path class="fil1" d="M2509.75 2777.4l-68.18 -202 -65.63 177.58 -8.66 24.42 142.47 0zm-183.17 93.62c0,-35.61 12.72,-69.7 33.58,-124.14l75.82 -200.47 26.46 0 119.56 351.59 -35.11 0c0,-7.64 -10.68,-42.24 -32.05,-105.33l-152.14 0c-5.59,20.86 -8.64,38.16 -8.64,55.46 0,15.78 2.54,32.56 9.15,49.87l-34.08 0c-1.54,-7.64 -2.55,-16.29 -2.55,-26.98z"/>
   <path class="fil1" d="M2649.69 2810.99l0 -222.87 -25.44 -39.68 35.11 0 194.88 308.85 -1.53 -200.98c-0.51,-43.25 -10.69,-74.29 -35.62,-107.87l39.18 0c9.67,23.4 13.22,50.37 13.22,87l0 262.55 -23.9 0 -180.63 -285.95 1.52 178.09c0.51,43.24 10.69,74.28 35.62,107.86l-39.69 0c-9.16,-23.4 -12.72,-50.37 -12.72,-87z"/>
   <path class="fil1" d="M2931.07 2548.44l227.45 0 5.59 18.83c-35.61,-2.55 -69.71,-4.07 -104.3,-4.07l0 235.07c0,60.55 0.51,95.66 1.02,99.72l-32.06 0c0.5,-4.06 1.53,-39.17 1.53,-99.72l0 -235.07c-35.11,0 -69.2,1.52 -104.82,4.07l5.59 -18.83z"/>
   <path class="fil1" d="M3354.93 2777.4l-68.18 -202 -65.64 177.58 -8.65 24.42 142.47 0zm-183.18 93.62c0,-35.61 12.73,-69.7 33.58,-124.14l75.82 -200.47 26.46 0 119.57 351.59 -35.11 0c0,-7.64 -10.69,-42.24 -32.05,-105.33l-152.14 0c-5.6,20.86 -8.65,38.16 -8.65,55.46 0,15.78 2.54,32.56 9.15,49.87l-34.08 0c-1.53,-7.64 -2.55,-16.29 -2.55,-26.98z"/>
   <path class="fil1" d="M3494.87 2810.99l0 -222.87 -25.45 -39.68 35.11 0 194.87 308.85 -1.51 -200.98c-0.52,-43.25 -10.7,-74.29 -35.63,-107.87l39.18 0c9.67,23.4 13.23,50.37 13.23,87l0 262.55 -23.91 0 -180.63 -285.95 1.53 178.09c0.5,43.24 10.68,74.28 35.61,107.86l-39.68 0c-9.16,-23.4 -12.72,-50.37 -12.72,-87z"/>
   <path class="fil1" d="M3978.75 2777.4l-68.18 -202 -65.64 177.58 -8.64 24.42 142.46 0zm-183.17 93.62c0,-35.61 12.72,-69.7 33.58,-124.14l75.81 -200.47 26.46 0 119.57 351.59 -35.11 0c0,-7.64 -10.68,-42.24 -32.04,-105.33l-152.14 0c-5.6,20.86 -8.65,38.16 -8.65,55.46 0,15.78 2.54,32.56 9.16,49.87l-34.1 0c-1.52,-7.64 -2.54,-16.29 -2.54,-26.98z"/>
   <polygon class="fil1" points="1489.54,3064 1489.54,3151.28 1479.32,3151.28 1426.95,3086.19 1426.95,3151.28 1414.48,3151.28 1414.48,3064 1424.7,3064 1477.08,3129.09 1477.08,3064 "/>
   <path class="fil1" d="M1571.11 3113.63l0 -49.63 12.47 0 0 49.13c0,19.33 8.85,28.06 24.56,28.06 15.71,0 24.69,-8.73 24.69,-28.06l0 -49.13 12.1 0 0 49.63c0,25.32 -13.85,38.65 -36.91,38.65 -22.95,0 -36.91,-13.33 -36.91,-38.65z"/>
   <polygon class="fil1" points="1742.33,3074.85 1712.4,3074.85 1712.4,3063.99 1784.61,3063.99 1784.61,3074.85 1754.67,3074.85 1754.67,3151.29 1742.33,3151.29 "/>
   <path class="fil1" d="M1912.3 3094.43c0,-12.48 -8.36,-19.58 -24.32,-19.58l-21.19 0 0 39.28 21.19 0c15.96,0 24.32,-7.24 24.32,-19.7zm0.37 56.86l-18.83 -26.82c-1.74,0.13 -3.61,0.26 -5.48,0.26l-21.57 0 0 26.56 -12.48 0 0 -87.3 34.05 0c22.69,0 36.4,11.48 36.4,30.44 0,13.46 -6.98,23.2 -19.2,27.55l20.7 29.31 -13.59 0z"/>
   <polygon class="fil1" points="2001.09,3063.99 2013.56,3063.99 2013.56,3151.28 2001.09,3151.28 "/>
   <path class="fil1" d="M2088.76 3107.64c0,-25.81 19.7,-44.64 46.26,-44.64 13.47,0 25.19,4.62 33.17,13.59l-8.1 7.86c-6.74,-7.11 -14.96,-10.35 -24.57,-10.35 -19.7,0 -34.29,14.22 -34.29,33.54 0,19.33 14.59,33.55 34.29,33.55 9.61,0 17.83,-3.37 24.57,-10.48l8.1 7.86c-7.98,8.98 -19.7,13.72 -33.29,13.72 -26.44,0 -46.14,-18.83 -46.14,-44.65z"/>
   <polygon class="fil1" points="2242.15,3063.99 2254.62,3063.99 2254.62,3151.28 2242.15,3151.28 "/>
   <path class="fil1" d="M2410.12 3107.64c0,-19.32 -14.47,-33.54 -33.8,-33.54 -19.57,0 -34.04,14.22 -34.04,33.54 0,19.33 14.47,33.55 34.04,33.55 19.33,0 33.8,-14.22 33.8,-33.55zm-80.31 0c0,-25.57 19.7,-44.64 46.51,-44.64 26.57,0 46.28,18.95 46.28,44.64 0,25.69 -19.71,44.65 -46.28,44.65 -26.81,0 -46.51,-19.08 -46.51,-44.65z"/>
   <polygon class="fil1" points="2572.86,3064 2572.86,3151.28 2562.63,3151.28 2510.26,3086.19 2510.26,3151.28 2497.79,3151.28 2497.79,3064 2508.02,3064 2560.39,3129.09 2560.39,3064 "/>
   <polygon class="fil1" points="2655.17,3063.99 2667.64,3063.99 2667.64,3151.28 2655.17,3151.28 "/>
   <path class="fil1" d="M2741.97 3141.31l4.61 -9.73c6.49,5.87 17.59,10.1 28.81,10.1 15.09,0 21.57,-5.86 21.57,-13.46 0,-21.33 -52.87,-7.86 -52.87,-40.29 0,-13.46 10.47,-24.93 33.41,-24.93 10.23,0 20.83,2.74 28.06,7.73l-4.11 9.98c-7.61,-4.87 -16.21,-7.11 -23.95,-7.11 -14.84,0 -21.19,6.23 -21.19,13.84 0,21.33 52.87,7.99 52.87,40.03 0,13.35 -10.73,24.81 -33.79,24.81 -13.35,0 -26.44,-4.48 -33.42,-10.97z"/>
   <polygon class="fil1" points="2899.59,3074.85 2869.67,3074.85 2869.67,3063.99 2941.87,3063.99 2941.87,3074.85 2911.94,3074.85 2911.94,3151.29 2899.59,3151.29 "/>
   <path class="fil1" d="M3058.47 3119.49l-18.83 -42.77 -18.83 42.77 37.66 0zm4.37 9.97l-46.39 0 -9.61 21.83 -12.84 0 39.53 -87.3 12.34 0 39.66 87.3 -13.1 0 -9.59 -21.83z"/>
   <path class="fil1" d="M2069.72 1469.58l1.05 0c54.16,0 65.62,23.96 65.62,76.05l0 225.06c20.46,19.73 41.84,37.31 63.55,53.7l0 -345.43c0,-11.46 -6.25,-21.87 -21.87,-21.87l-108.35 0 0 12.49z"/>
   <path class="fil1" d="M2433.26 2170.65l-233.32 0 0 -226.09 -44.42 -30.84c-6.5,-4.51 -12.85,-9.17 -19.13,-13.91l0 286.46 302.11 0c-1.57,-5.29 -3.3,-10.51 -5.24,-15.62z"/>
   <path class="fil1" d="M2541.61 2102.94l0 2.08c0,31.65 -7.84,48.69 -24.72,57.42 1.55,7.9 2.76,15.85 3.61,23.83l11.75 0c12.49,0 21.87,-6.24 21.87,-21.87l0 -61.46 -12.51 0z"/>
   <path class="fil1" d="M2392.78 2381.9c57.29,-44.98 83.21,-102.16 72.99,-170.29 -16.13,-107.65 -103.56,-180.21 -189,-239.53l-109.17 -75.76c-42.19,-29.29 -78.28,-62.46 -111.6,-101.61 -95,-111.64 -117.92,-274.54 -29.84,-395.45 15.46,-21.21 32.24,-40.3 56.34,-51.55 -102.34,122.14 -93.27,291.75 9.95,407.86 111.8,125.77 253.37,164.64 354.75,301.29 37.98,51.18 57.69,112.75 53,176.07 -5.01,67.59 -45.17,127.38 -107.42,148.97z"/>
   <path class="fil1" d="M2563.09 2208.73c71.73,-74.11 122.42,-160.3 139.8,-260.27 32,-178.64 -36.77,-352.89 -179.91,-463.35 -95.81,-73.93 -209.88,-102.32 -333.63,-101.4 239.88,-48.57 478.94,104.22 541,338.59 33.63,127 12.63,260.89 -56.28,372.23 -31.54,45.01 -63.84,86.44 -110.98,114.2z"/>
   <path class="fil1" d="M2295.73 2319.04c-103.69,22.66 -212.32,-1.22 -306.13,-54.3 -179.59,-105.15 -270.9,-315.93 -223.07,-518.5 22.46,-95.17 71.81,-184.17 150.22,-242.84 -175.91,196.07 -166.73,477.05 7.7,665.87 97.53,100.85 227.11,151.08 371.28,149.77z"/>
  </g>
 </g>
</svg>
