<?xml version="1.0" encoding="UTF-8"?>
<!DOCTYPE svg PUBLIC "-//W3C//DTD SVG 1.1//EN" "http://www.w3.org/Graphics/SVG/1.1/DTD/svg11.dtd">
<!-- Creator: CorelDRAW 2020 (64 Bit) -->
<svg xmlns="http://www.w3.org/2000/svg" xml:space="preserve" width="4500px" height="4500px" version="1.1" style="shape-rendering:geometricPrecision; text-rendering:geometricPrecision; image-rendering:optimizeQuality; fill-rule:evenodd; clip-rule:evenodd"
viewBox="0 0 4500 4500"
 xmlns:xlink="http://www.w3.org/1999/xlink"
 xmlns:xodm="http://www.corel.com/coreldraw/odm/2003">
 <defs>
  <style type="text/css">
   <![CDATA[
    .fil0 {fill:#F0EDE4}
    .fil1 {fill:#627060;fill-rule:nonzero}
   ]]>
  </style>
 </defs>
 <g id="Camada_x0020_1">
  <metadata id="CorelCorpID_0Corel-Layer"/>
  <rect class="fil0" width="4500" height="4500"/>
  <g id="_2289288326304">
   <path class="fil1" d="M1224.72 2312.04l0 -122.83c0,-49.55 -0.84,-78.27 -1.25,-81.6l26.23 0c-0.41,3.33 -0.83,32.05 -0.83,81.6l0 192.36c41.63,-0.41 85.35,-1.66 128.66,-3.33 0.41,1.25 0.82,2.5 0.82,4.17 0,3.74 -2.07,7.91 -5.41,11.24l-149.47 0c0.41,-3.33 1.25,-32.07 1.25,-81.61z"/>
   <path class="fil1" d="M1566.55 2294.97l-55.79 -165.3 -53.71 145.31 -7.08 19.99 116.58 0zm-149.89 76.61c0,-29.15 10.41,-57.05 27.48,-101.59l62.04 -164.05 21.65 0 97.85 287.71 -28.74 0c0,-6.25 -8.73,-34.56 -26.23,-86.19l-124.48 0c-4.58,17.07 -7.09,31.23 -7.09,45.38 0,12.91 2.09,26.65 7.5,40.81l-27.9 0c-1.25,-6.25 -2.08,-13.33 -2.08,-22.07z"/>
   <path class="fil1" d="M1681.06 2322.45l0 -182.37 -20.81 -32.48 28.73 0 159.47 252.74 -1.26 -164.47c-0.41,-35.39 -8.74,-60.78 -29.14,-88.27l32.06 0c7.91,19.15 10.83,41.22 10.83,71.2l0 214.84 -19.58 0 -147.81 -234 1.25 145.74c0.42,35.39 8.75,60.79 29.15,88.26l-32.48 0c-7.5,-19.15 -10.41,-41.22 -10.41,-71.19z"/>
   <path class="fil1" d="M1950.04 2322.45l0 -182.37 -20.82 -32.48 28.73 0 159.47 252.74 -1.25 -164.47c-0.41,-35.39 -8.75,-60.78 -29.15,-88.27l32.07 0c7.91,19.15 10.82,41.22 10.82,71.2l0 214.84 -19.57 0 -147.8 -234 1.24 145.74c0.42,35.39 8.75,60.79 29.14,88.26l-32.47 0c-7.49,-19.15 -10.41,-41.22 -10.41,-71.19z"/>
   <path class="fil1" d="M2276.9 2312.04l0 -32.48 -92.85 -171.95 29.14 0c0,4.15 12.08,27.88 34.98,69.94l47.04 86.61c47.47,-61.21 68.71,-89.94 68.71,-121.58 0,-12.91 -3.75,-24.57 -8.75,-34.97l28.32 0c1.66,8.73 2.5,15.82 2.5,22.89 0,41.64 -30.4,75.36 -84.94,146.98l0 34.56c0,49.13 0.41,78.28 1.24,81.61l-26.64 0c0.83,-3.33 1.25,-32.48 1.25,-81.61z"/>
   <path class="fil1" d="M2527.14 2326.19l23.31 -10.41c9.58,43.3 36.64,69.54 72.45,69.54 33.32,0 59.55,-22.48 59.55,-55.8 0,-22.89 -12.5,-44.55 -45.81,-60.79l-45.8 -22.48c-37.05,-18.32 -55.37,-43.72 -55.37,-74.11 0,-42.48 35.81,-70.78 80.36,-70.78 45.79,0 79.52,30.39 97,76.61l-24.14 7.08c-12.9,-41.64 -37.47,-70.78 -76.2,-70.78 -32.06,0 -55.38,19.98 -55.38,51.2 0,24.16 14.17,44.56 47.48,61.22l46.21 22.48c36.22,17.9 54.13,42.05 54.13,73.28 0,44.97 -37.89,76.19 -86.19,76.19 -45.8,0 -79.11,-28.32 -91.6,-72.45z"/>
   <path class="fil1" d="M2909.79 2294.97l-55.79 -165.3 -53.71 145.31 -7.09 19.99 116.59 0zm-149.89 76.61c0,-29.15 10.4,-57.05 27.47,-101.59l62.05 -164.05 21.65 0 97.84 287.71 -28.73 0c0,-6.25 -8.74,-34.56 -26.23,-86.19l-124.49 0c-4.58,17.07 -7.08,31.23 -7.08,45.38 0,12.91 2.08,26.65 7.49,40.81l-27.89 0c-1.25,-6.25 -2.08,-13.33 -2.08,-22.07z"/>
   <path class="fil1" d="M3024.3 2322.45l0 -182.37 -20.82 -32.48 28.73 0 159.47 252.74 -1.25 -164.47c-0.42,-35.39 -8.75,-60.78 -29.15,-88.27l32.07 0c7.91,19.15 10.82,41.22 10.82,71.2l0 214.84 -19.57 0 -147.81 -234 1.25 145.74c0.41,35.39 8.74,60.79 29.14,88.26l-32.47 0c-7.5,-19.15 -10.41,-41.22 -10.41,-71.19z"/>
   <path class="fil1" d="M3254.55 2107.6l186.12 0 4.58 15.41c-29.14,-2.08 -57.04,-3.33 -85.35,-3.33l0 192.35c0,49.56 0.41,78.28 0.83,81.61l-26.23 0c0.41,-3.33 1.25,-32.05 1.25,-81.61l0 -192.35c-28.73,0 -56.63,1.25 -85.77,3.33l4.57 -15.41z"/>
   <path class="fil1" d="M3601.39 2294.97l-55.78 -165.3 -53.72 145.31 -7.08 19.99 116.58 0zm-149.89 76.61c0,-29.15 10.41,-57.05 27.48,-101.59l62.05 -164.05 21.64 0 97.85 287.71 -28.73 0c0,-6.25 -8.74,-34.56 -26.23,-86.19l-124.5 0c-4.58,17.07 -7.07,31.23 -7.07,45.38 0,12.91 2.08,26.65 7.49,40.81l-27.89 0c-1.25,-6.25 -2.09,-13.33 -2.09,-22.07z"/>
   <path class="fil1" d="M3715.91 2322.45l0 -182.37 -20.82 -32.48 28.72 0 159.48 252.74 -1.25 -164.47c-0.42,-35.39 -8.75,-60.78 -29.15,-88.27l32.06 0c7.91,19.15 10.82,41.22 10.82,71.2l0 214.84 -19.56 0 -147.81 -234 1.25 145.74c0.41,35.39 8.74,60.79 29.14,88.26l-32.47 0c-7.5,-19.15 -10.41,-41.22 -10.41,-71.19z"/>
   <path class="fil1" d="M4111.87 2294.97l-55.79 -165.3 -53.71 145.31 -7.08 19.99 116.58 0zm-149.89 76.61c0,-29.15 10.41,-57.05 27.49,-101.59l62.03 -164.05 21.65 0 97.85 287.71 -28.74 0c0,-6.25 -8.73,-34.56 -26.22,-86.19l-124.49 0c-4.58,17.07 -7.09,31.23 -7.09,45.38 0,12.91 2.09,26.65 7.5,40.81l-27.9 0c-1.24,-6.25 -2.08,-13.33 -2.08,-22.07z"/>
   <polygon class="fil1" points="2074.94,2529.48 2074.94,2600.92 2066.58,2600.92 2023.72,2547.65 2023.72,2600.92 2013.52,2600.92 2013.52,2529.48 2021.88,2529.48 2064.74,2582.75 2064.74,2529.48 "/>
   <path class="fil1" d="M2141.69 2570.1l0 -40.61 10.21 0 0 40.19c0,15.83 7.24,22.97 20.1,22.97 12.85,0 20.2,-7.14 20.2,-22.97l0 -40.19 9.9 0 0 40.61c0,20.71 -11.33,31.63 -30.21,31.63 -18.78,0 -30.2,-10.92 -30.2,-31.63z"/>
   <polygon class="fil1" points="2281.8,2538.36 2257.31,2538.36 2257.31,2529.48 2316.39,2529.48 2316.39,2538.36 2291.9,2538.36 2291.9,2600.92 2281.8,2600.92 "/>
   <path class="fil1" d="M2420.89 2554.39c0,-10.21 -6.84,-16.02 -19.9,-16.02l-17.35 0 0 32.14 17.35 0c13.06,0 19.9,-5.92 19.9,-16.12zm0.3 46.53l-15.41 -21.94c-1.42,0.1 -2.96,0.2 -4.48,0.2l-17.66 0 0 21.74 -10.2 0 0 -71.44 27.86 0c18.57,0 29.79,9.39 29.79,24.91 0,11.02 -5.72,18.98 -15.72,22.54l16.94 23.99 -11.12 0z"/>
   <polygon class="fil1" points="2493.55,2529.49 2503.76,2529.49 2503.76,2600.92 2493.55,2600.92 "/>
   <path class="fil1" d="M2565.29 2565.2c0,-21.12 16.12,-36.53 37.85,-36.53 11.03,0 20.62,3.78 27.15,11.12l-6.63 6.44c-5.52,-5.83 -12.25,-8.48 -20.11,-8.48 -16.12,0 -28.06,11.64 -28.06,27.45 0,15.82 11.94,27.45 28.06,27.45 7.86,0 14.59,-2.76 20.11,-8.57l6.63 6.43c-6.53,7.34 -16.12,11.22 -27.25,11.22 -21.63,0 -37.75,-15.41 -37.75,-36.53z"/>
   <polygon class="fil1" points="2690.8,2529.49 2701.01,2529.49 2701.01,2600.92 2690.8,2600.92 "/>
   <path class="fil1" d="M2828.26 2565.2c0,-15.81 -11.84,-27.45 -27.66,-27.45 -16.02,0 -27.86,11.64 -27.86,27.45 0,15.82 11.84,27.45 27.86,27.45 15.82,0 27.66,-11.63 27.66,-27.45zm-65.72 0c0,-20.92 16.12,-36.53 38.06,-36.53 21.74,0 37.86,15.51 37.86,36.53 0,21.01 -16.12,36.53 -37.86,36.53 -21.94,0 -38.06,-15.61 -38.06,-36.53z"/>
   <polygon class="fil1" points="2961.43,2529.48 2961.43,2600.92 2953.06,2600.92 2910.2,2547.65 2910.2,2600.92 2900,2600.92 2900,2529.48 2908.36,2529.48 2951.23,2582.75 2951.23,2529.48 "/>
   <polygon class="fil1" points="3028.78,2529.49 3038.99,2529.49 3038.99,2600.92 3028.78,2600.92 "/>
   <path class="fil1" d="M3099.81 2592.75l3.77 -7.96c5.31,4.8 14.39,8.27 23.57,8.27 12.35,0 17.66,-4.8 17.66,-11.02 0,-17.46 -43.26,-6.43 -43.26,-32.96 0,-11.02 8.57,-20.4 27.34,-20.4 8.36,0 17.04,2.23 22.96,6.31l-3.37 8.17c-6.22,-3.98 -13.26,-5.82 -19.59,-5.82 -12.14,0 -17.35,5.1 -17.35,11.33 0,17.45 43.27,6.53 43.27,32.75 0,10.92 -8.78,20.31 -27.66,20.31 -10.92,0 -21.63,-3.67 -27.34,-8.98z"/>
   <polygon class="fil1" points="3228.79,2538.36 3204.3,2538.36 3204.3,2529.48 3263.38,2529.48 3263.38,2538.36 3238.89,2538.36 3238.89,2600.92 3228.79,2600.92 "/>
   <path class="fil1" d="M3358.8 2574.89l-15.41 -34.99 -15.4 34.99 30.81 0zm3.57 8.17l-37.96 0 -7.85 17.86 -10.52 0 32.35 -71.44 10.1 0 32.46 71.44 -10.72 0 -7.86 -17.86z"/>
   <path class="fil1" d="M564.66 1955.07l0.78 0c40.41,0 48.96,17.88 48.96,56.75l0 167.95c15.28,14.72 31.23,27.84 47.43,40.06l0 -257.76c0,-8.55 -4.67,-16.32 -16.32,-16.32l-80.85 0 0 9.32z"/>
   <path class="fil1" d="M835.94 2478.22l-174.11 0 0 -168.71 -33.15 -23.01c-4.85,-3.37 -9.59,-6.85 -14.27,-10.38l0 213.76 225.43 0c-1.16,-3.95 -2.46,-7.85 -3.9,-11.66z"/>
   <path class="fil1" d="M916.79 2427.69l0 1.56c0,23.61 -5.85,36.34 -18.45,42.85 1.15,5.89 2.06,11.83 2.69,17.78l8.76 0c9.33,0 16.33,-4.67 16.33,-16.32l0 -45.87 -9.33 0z"/>
   <path class="fil1" d="M805.73 2635.86c42.74,-33.56 62.09,-76.24 54.47,-127.07 -12.05,-80.33 -77.29,-134.48 -141.05,-178.74l-81.45 -56.54c-31.49,-21.85 -58.42,-46.61 -83.29,-75.82 -70.88,-83.31 -87.99,-204.86 -22.26,-295.09 11.53,-15.83 24.05,-30.07 42.04,-38.46 -76.37,91.13 -69.6,217.69 7.43,304.34 83.42,93.85 189.06,122.86 264.72,224.83 28.34,38.2 43.04,84.14 39.54,131.39 -3.73,50.43 -33.7,95.05 -80.15,111.16z"/>
   <path class="fil1" d="M932.82 2506.64c53.52,-55.3 91.34,-119.62 104.31,-194.22 23.88,-133.3 -27.44,-263.33 -134.25,-345.76 -71.49,-55.17 -156.61,-76.35 -248.95,-75.66 179,-36.25 357.39,77.76 403.7,252.65 25.09,94.78 9.42,194.68 -42,277.77 -23.54,33.59 -47.64,64.5 -82.81,85.22z"/>
   <path class="fil1" d="M733.31 2588.95c-77.38,16.91 -158.43,-0.91 -228.44,-40.51 -134.02,-78.47 -202.15,-235.76 -166.47,-386.92 16.78,-71.02 53.59,-137.43 112.11,-181.21 -131.27,146.31 -124.42,355.98 5.74,496.89 72.77,75.25 169.48,112.72 277.06,111.75z"/>
  </g>
 </g>
</svg>
